<?xml version="1.0" encoding="UTF-8"?>
<svg id="Layer_2" xmlns="http://www.w3.org/2000/svg" viewBox="0 0 291.15 64.95">
  <defs>
    <style>
      .cls-1 {
        fill: #fff;
      }

      .cls-1, .cls-2 {
        fill-rule: evenodd;
      }

      .cls-2 {
        fill: #ef910d;
      }
    </style>
  </defs>
  <g id="Group_2">
    <g id="_x2E_">
      <path class="cls-2" d="M289.37,52.25c-1.34-1.34-3-1.96-4.52-1.96-1.34,0-2.99.43-4.46,1.89-.79.79-1.89,2.26-1.89,4.46s1.1,3.67,1.89,4.46c1.47,1.47,3.12,1.89,4.46,1.89,1.59,0,3.18-.61,4.46-1.89,1.1-1.1,1.83-2.44,1.83-4.46s-.73-3.36-1.77-4.4Z"/>
    </g>
    <g id="Fanlinkk">
      <path class="cls-1" d="M0,63.65h15.93v-24.05h17.47v-13.49H15.93v-10.24h19.18V2.39H0v61.27ZM71.18,26.12c-3.41-3.63-7.72-5.44-12.92-5.44-3.09,0-5.9.58-8.45,1.75-2.55,1.17-4.74,2.75-6.58,4.75-1.84,2-3.28,4.35-4.31,7.03-1.03,2.68-1.54,5.51-1.54,8.49,0,3.2.53,6.15,1.58,8.86,1.06,2.71,2.53,5.07,4.43,7.07,1.9,2,4.12,3.56,6.66,4.67,2.55,1.11,5.33,1.67,8.37,1.67,5.36,0,9.61-1.98,12.76-5.93v4.63h14.79V21.97h-14.79v4.14ZM70.89,46.51c-.52,1.14-1.19,2.14-2.03,3.01-.84.87-1.84,1.54-3.01,2.03-1.17.49-2.4.73-3.7.73s-2.61-.24-3.78-.73c-1.17-.49-2.17-1.16-3.01-2.03-.84-.87-1.5-1.88-1.99-3.05-.49-1.16-.73-2.42-.73-3.78s.24-2.5.73-3.62c.49-1.11,1.15-2.1,1.99-2.97.84-.87,1.84-1.54,3.01-2.03,1.16-.49,2.42-.73,3.78-.73s2.53.24,3.7.73c1.16.49,2.17,1.17,3.01,2.03.84.87,1.52,1.88,2.03,3.05.51,1.17.77,2.4.77,3.7s-.26,2.52-.77,3.66ZM133.17,26.52c-1.46-1.73-3.24-3.07-5.32-4.02-2.09-.95-4.59-1.42-7.52-1.42-2.76,0-5.17.42-7.23,1.26-2.06.84-4.09,2.48-6.09,4.92v-5.28h-14.71v41.68h14.71v-22.26c0-2.76.66-4.89,1.99-6.38,1.33-1.49,3.24-2.23,5.73-2.23.92,0,1.79.14,2.6.41.81.27,1.54.73,2.19,1.38.76.76,1.29,1.77,1.58,3.05.3,1.27.45,2.94.45,5v21.04h14.71v-26.49c0-2.22-.22-4.2-.65-5.93-.43-1.73-1.25-3.3-2.44-4.71ZM143.5,63.65h6.29V0h-6.29v63.65ZM157.73,63.65h6.29V27.42h-6.29v36.24ZM160.87,9.26c-2.44,0-4.45,2.01-4.45,4.45s2.01,4.45,4.45,4.45,4.45-2.01,4.45-4.45-2.01-4.45-4.45-4.45ZM188.64,26.54c-6.02,0-9.26,3.58-10.39,5.06v-4.19h-6.29v36.24h6.29v-18.95c0-2.62.17-6.9,2.62-9.78,1.83-2.18,4.19-2.79,6.37-2.79,2.79,0,4.72,1.05,5.94,2.62,1.48,1.92,1.66,4.45,1.66,6.64v22.27h6.29v-22.44c0-4.02-.26-6.99-2.1-9.69-2.18-3.23-6.11-4.98-10.39-4.98ZM236.84,27.42h-8.21l-13.27,13.45V0h-6.29v63.65h6.29v-14.93l1.57-1.57,14.49,16.5h8.21l-18.34-20.69,15.54-15.54ZM254.21,42.96l15.54-15.54h-8.21l-13.27,13.45V0h-6.29v63.65h6.29v-14.93l1.57-1.57,14.49,16.5h8.21l-18.34-20.69Z"/>
    </g>
  </g>
</svg>