<svg xmlns="http://www.w3.org/2000/svg" version="1.1" xmlns:xlink="http://www.w3.org/1999/xlink" width="512" height="512" x="0" y="0" viewBox="0 0 32 32" style="enable-background:new 0 0 512 512" xml:space="preserve" class=""><g><path d="M31 30H1a1 1 0 0 1 0-2h30a1 1 0 0 1 0 2zM9 12v14H3V12c0-.55.45-1 1-1h4c.55 0 1 .45 1 1zM19 15v11h-6V15c0-.55.45-1 1-1h4c.55 0 1 .45 1 1zM29 12v14h-6V12c0-.55.45-1 1-1h4c.55 0 1 .45 1 1zM6 6c-1.103 0-2-.897-2-2s.897-2 2-2 2 .897 2 2-.897 2-2 2zM16 9c-1.103 0-2-.897-2-2s.897-2 2-2 2 .897 2 2-.897 2-2 2zM26 6c-1.103 0-2-.897-2-2s.897-2 2-2 2 .897 2 2-.897 2-2 2z" fill="#ffffff" opacity="1" data-original="#000000" class=""></path><path d="M16 8c-.097 0-.194-.014-.287-.042l-9.665-2.9-4.676 1.87a1.001 1.001 0 0 1-.743-1.857l5-2c.21-.083.442-.094.658-.029L16 5.956l9.713-2.914c.156-.046.322-.055.483-.023l5 1a1 1 0 0 1-.392 1.961l-4.756-.95-9.76 2.928C16.193 7.986 16.096 8 16 8z" fill="#ffffff" opacity="1" data-original="#000000" class=""></path></g></svg>