<svg xmlns="http://www.w3.org/2000/svg" version="1.1" xmlns:xlink="http://www.w3.org/1999/xlink" width="512" height="512" x="0" y="0" viewBox="0 0 32 32" style="enable-background:new 0 0 512 512" xml:space="preserve" class=""><g><path d="M31.01 21.72c.21.34.2.76-.03 1.09-.19.27-.49.43-.82.43-.06 0-.12-.01-.18-.02l-5.81-1.08c-.12-.02-.25-.04-.38-.04.14-.76.21-1.54.21-2.34 0-7.17-5.83-13-13-13h-.07c.2-.59.47-1.15.8-1.67C14.06 1.42 18.21-.49 22.56.11c4.74.65 8.56 4.41 9.3 9.13.53 3.4-.52 6.79-2.82 9.25z" fill="#ffffff" opacity="1" data-original="#000000" class=""></path><path d="M11 8.76c-6.07 0-11 4.93-11 11 0 2.78 1.07 5.47 2.96 7.49L.99 30.48c-.21.34-.2.76.03 1.09.19.27.49.43.82.43.06 0 .12-.01.18-.02l7.27-1.35c.56.08 1.13.13 1.71.13 6.07 0 11-4.93 11-11s-4.93-11-11-11zM15 25H7c-.55 0-1-.45-1-1s.45-1 1-1h8c.55 0 1 .45 1 1s-.45 1-1 1zm0-4H7c-.55 0-1-.45-1-1s.45-1 1-1h8c.55 0 1 .45 1 1s-.45 1-1 1zm0-4H7c-.55 0-1-.45-1-1s.45-1 1-1h8c.55 0 1 .45 1 1s-.45 1-1 1z" fill="#ffffff" opacity="1" data-original="#000000" class=""></path></g></svg>