<svg xmlns="http://www.w3.org/2000/svg" version="1.1" xmlns:xlink="http://www.w3.org/1999/xlink" width="512" height="512" x="0" y="0" viewBox="0 0 24 24" style="enable-background:new 0 0 512 512" xml:space="preserve" class=""><g><path d="M3 7h14v1a1 1 0 0 0 2 0V7h2a1 1 0 0 0 0-2h-2V4a1 1 0 0 0-2 0v1H3a1 1 0 0 0 0 2zM21 11h-8v-1a1 1 0 0 0-2 0v1H3a1 1 0 0 0 0 2h8v1a1 1 0 0 0 2 0v-1h8a1 1 0 0 0 0-2zM21 17h-2v-1a1 1 0 0 0-2 0v1H3a1 1 0 0 0 0 2h14v1a1 1 0 0 0 2 0v-1h2a1 1 0 0 0 0-2z" fill="#ffffff" opacity="1" data-original="#000000"></path></g></svg>